<svg width="34" height="34" viewBox="0 0 34 34" fill="none" xmlns="http://www.w3.org/2000/svg">
<g clip-path="url(#clip0_2415_1780)">
<path d="M18.8457 8.10254H22.9707L28.127 23.5713" stroke="#1E293B" stroke-width="2" stroke-miterlimit="10" stroke-linecap="round" stroke-linejoin="round"/>
<path d="M28.127 27.6963C30.4051 27.6963 32.252 25.8495 32.252 23.5713C32.252 21.2931 30.4051 19.4463 28.127 19.4463C25.8488 19.4463 24.002 21.2931 24.002 23.5713C24.002 25.8495 25.8488 27.6963 28.127 27.6963Z" stroke="#1E293B" stroke-width="2" stroke-miterlimit="10" stroke-linecap="round" stroke-linejoin="round"/>
<path d="M5.43945 27.6963C7.71763 27.6963 9.56445 25.8495 9.56445 23.5713C9.56445 21.2931 7.71763 19.4463 5.43945 19.4463C3.16128 19.4463 1.31445 21.2931 1.31445 23.5713C1.31445 25.8495 3.16128 27.6963 5.43945 27.6963Z" stroke="#1E293B" stroke-width="2" stroke-miterlimit="10" stroke-linecap="round" stroke-linejoin="round"/>
<path d="M5.43945 15.3213C9.97695 15.3213 13.6895 19.0338 13.6895 23.5713H19.877C19.877 19.0338 23.5895 15.3213 28.127 15.3213C28.952 15.3213 29.8801 15.4244 30.602 15.7338" stroke="#1E293B" stroke-width="2" stroke-miterlimit="10" stroke-linecap="round" stroke-linejoin="round"/>
<path d="M24.002 12.2275H17.8145L17.402 12.8463C15.752 15.5275 12.6582 16.9713 9.56445 16.3525" stroke="#1E293B" stroke-width="2" stroke-miterlimit="10" stroke-linecap="round" stroke-linejoin="round"/>
</g>
<defs>
<clipPath id="clip0_2415_1780">
<rect width="33" height="33" fill="white" transform="translate(0.283203 0.883789)"/>
</clipPath>
</defs>
</svg>
