<svg width="34" height="34" viewBox="0 0 34 34" fill="none" xmlns="http://www.w3.org/2000/svg">
<path d="M20.9082 29.7588V24.2588C20.9082 23.5294 21.1979 22.83 21.7137 22.3142C22.2294 21.7985 22.9289 21.5088 23.6582 21.5088H29.1582" stroke="#1E293B" stroke-width="2" stroke-linecap="round" stroke-linejoin="round"/>
<path d="M9.9082 6.38379V9.13379C10.2048 9.97732 10.7675 10.7016 11.5115 11.1976C12.2555 11.6936 13.1405 11.9344 14.0332 11.8838C14.7625 11.8838 15.462 12.1735 15.9777 12.6892C16.4935 13.205 16.7832 13.9044 16.7832 14.6338C16.7832 15.3631 17.0729 16.0626 17.5887 16.5783C18.1044 17.0941 18.8039 17.3838 19.5332 17.3838C20.2625 17.3838 20.962 17.0941 21.4777 16.5783C21.9935 16.0626 22.2832 15.3631 22.2832 14.6338C22.2832 13.9044 22.5729 13.205 23.0887 12.6892C23.6044 12.1735 24.3039 11.8838 25.0332 11.8838H29.1582" stroke="#1E293B" stroke-width="2" stroke-linecap="round" stroke-linejoin="round"/>
<path d="M4.4082 16.0088H7.1582C7.88755 16.0088 8.58702 16.2985 9.10275 16.8142C9.61847 17.33 9.9082 18.0294 9.9082 18.7588V20.1338C9.9082 20.8631 10.1979 21.5626 10.7137 22.0783C11.2294 22.5941 11.9289 22.8838 12.6582 22.8838C13.3875 22.8838 14.087 23.1735 14.6027 23.6892C15.1185 24.205 15.4082 24.9044 15.4082 25.6338V31.1338" stroke="#1E293B" stroke-width="2" stroke-linecap="round" stroke-linejoin="round"/>
<path d="M16.7832 31.1338C24.3771 31.1338 30.5332 24.9777 30.5332 17.3838C30.5332 9.78987 24.3771 3.63379 16.7832 3.63379C9.18929 3.63379 3.0332 9.78987 3.0332 17.3838C3.0332 24.9777 9.18929 31.1338 16.7832 31.1338Z" stroke="#1E293B" stroke-width="2" stroke-linecap="round" stroke-linejoin="round"/>
</svg>
