<svg width="50" height="50" viewBox="0 0 50 50" fill="none" xmlns="http://www.w3.org/2000/svg">
<circle cx="25.4023" cy="25.1279" r="24" fill="white" stroke="#FB5605"/>
<path d="M35.916 16.2385C35.3014 15.6218 34.5712 15.1325 33.7671 14.7986C32.963 14.4647 32.101 14.2928 31.2303 14.2928C30.3597 14.2928 29.4977 14.4647 28.6936 14.7986C27.8895 15.1325 27.1593 15.6218 26.5447 16.2385L25.6015 17.194L24.6582 16.2385C24.0437 15.6218 23.3134 15.1325 22.5094 14.7986C21.7053 14.4647 20.8432 14.2928 19.9726 14.2928C19.102 14.2928 18.2399 14.4647 17.4358 14.7986C16.6318 15.1325 15.9015 15.6218 15.287 16.2385C12.69 18.8355 12.5307 23.221 15.8015 26.553L25.6015 36.353L35.4015 26.553C38.6722 23.221 38.513 18.8355 35.916 16.2385Z" fill="#FB5605" stroke="#FB5605" stroke-width="2" stroke-linecap="round" stroke-linejoin="round"/>
</svg>
