<svg width="49" height="49" viewBox="0 0 49 49" fill="none" xmlns="http://www.w3.org/2000/svg">
<circle cx="24.5" cy="24.5" r="24" fill="#F1F5F9" stroke="#FB5605"/>
<path d="M35.0136 15.6105C34.3991 14.9938 33.6688 14.5045 32.8648 14.1706C32.0607 13.8367 31.1986 13.6649 30.328 13.6649C29.4574 13.6649 28.5953 13.8367 27.7912 14.1706C26.9872 14.5045 26.2569 14.9938 25.6424 15.6105L24.6991 16.566L23.7559 15.6105C23.1413 14.9938 22.4111 14.5045 21.607 14.1706C20.8029 13.8367 19.9409 13.6649 19.0703 13.6649C18.1996 13.6649 17.3376 13.8367 16.5335 14.1706C15.7294 14.5045 14.9992 14.9938 14.3846 15.6105C11.7876 18.2075 11.6284 22.593 14.8991 25.925L24.6991 35.725L34.4991 25.925C37.7699 22.593 37.6106 18.2075 35.0136 15.6105Z" stroke="#556B2F" stroke-width="2" stroke-linecap="round" stroke-linejoin="round"/>
</svg>
