<svg width="34" height="25" viewBox="0 0 34 25" fill="none" xmlns="http://www.w3.org/2000/svg">
<path d="M25.0374 24.3839H27.3355C28.1166 24.3841 28.8902 24.2285 29.6119 23.926C30.3336 23.6235 30.9893 23.1799 31.5417 22.6208C32.094 22.0616 32.5321 21.3977 32.8309 20.6671C33.1297 19.9365 33.2834 19.1534 33.2832 18.3626V16.0361C33.2807 15.0745 33.1133 14.1206 32.7885 13.217L32.7835 13.1978C32.2702 11.7606 31.3771 10.4936 30.2015 9.53488C29.0258 8.57621 27.6128 7.96267 26.1163 7.76114C24.6199 7.5596 23.0976 7.77781 21.7153 8.39198C20.3329 9.00615 19.1437 9.99271 18.2771 11.2441C17.4105 12.4955 16.8999 13.9637 16.8009 15.4887C16.702 17.0137 17.0184 18.5369 17.7158 19.8924C18.4131 21.2478 19.4647 22.3834 20.7557 23.1754C22.0468 23.9674 23.5278 24.3854 25.0374 24.3839ZM31.4172 14.3665C31.5592 14.9114 31.6321 15.4725 31.634 16.0361V18.3626C31.634 18.4227 31.6258 18.4811 31.6233 18.5404H26.5695C26.3904 18.5403 26.2162 18.4812 26.0733 18.372C25.9303 18.2628 25.8263 18.1095 25.7771 17.9352L25.0704 15.4308C25.0353 15.3067 25.0292 15.176 25.0525 15.049C25.0757 14.9221 25.1277 14.8023 25.2045 14.6991C25.2812 14.596 25.3805 14.5123 25.4946 14.4545C25.6087 14.3968 25.7345 14.3667 25.862 14.3665H31.4172ZM25.0374 9.3578C26.194 9.35929 27.3298 9.66858 28.331 10.2546C29.3322 10.8407 30.1636 11.683 30.7419 12.6969H25.862C25.4792 12.697 25.1016 12.787 24.759 12.9599C24.4163 13.1328 24.118 13.3839 23.8875 13.6933C23.657 14.0027 23.5006 14.3621 23.4305 14.7432C23.3605 15.1242 23.3788 15.5165 23.4839 15.8891L24.1906 18.3935C24.3398 18.9159 24.6523 19.3753 25.0812 19.7028C25.5101 20.0303 26.0323 20.2083 26.5695 20.21H31.2218C30.8782 20.9593 30.3298 21.5933 29.6416 22.0371C28.9534 22.4809 28.154 22.7159 27.338 22.7143H25.0374C23.2879 22.7143 21.61 22.0107 20.3729 20.7583C19.1358 19.5059 18.4408 17.8072 18.4408 16.0361C18.4408 14.2649 19.1358 12.5662 20.3729 11.3138C21.61 10.0614 23.2879 9.3578 25.0374 9.3578Z" fill="#1E293B"/>
<path d="M8.53743 17.0794H10.8355C11.6166 17.0797 12.3902 16.9241 13.1119 16.6215C13.8336 16.319 14.4893 15.8755 15.0417 15.3163C15.594 14.7572 16.0321 14.0933 16.3309 13.3627C16.6297 12.632 16.7834 11.8489 16.7832 11.0582V8.73161C16.7807 7.77002 16.6133 6.81618 16.2885 5.91255L16.2835 5.89335C15.7702 4.45612 14.8771 3.18911 13.7015 2.23044C12.5258 1.27177 11.1128 0.658227 9.61634 0.456694C8.11993 0.255161 6.59759 0.473371 5.21525 1.08754C3.83292 1.70171 2.64366 2.68826 1.77709 3.93966C0.910532 5.19106 0.39993 6.65928 0.30095 8.18427C0.201969 9.70926 0.518408 11.2325 1.21577 12.5879C1.91314 13.9434 2.96466 15.079 4.25572 15.871C5.54679 16.663 7.02784 17.081 8.53743 17.0794ZM14.9172 7.06205C15.0592 7.607 15.1321 8.16803 15.134 8.73161V11.0582C15.134 11.1183 15.1258 11.1767 15.1233 11.236H10.0695C9.89041 11.2359 9.71622 11.1768 9.57325 11.0676C9.43029 10.9584 9.32633 10.8051 9.27708 10.6307L8.57041 8.12639C8.53534 8.00225 8.52919 7.87155 8.55245 7.74459C8.57571 7.61763 8.62775 7.49786 8.70447 7.39471C8.78119 7.29155 8.8805 7.20782 8.9946 7.1501C9.10869 7.09237 9.23446 7.06223 9.36201 7.06205H14.9172ZM8.53743 2.05335C9.69395 2.05485 10.8298 2.36413 11.831 2.9502C12.8322 3.53626 13.6636 4.37851 14.2419 5.39248H9.36201C8.97918 5.39256 8.60159 5.4826 8.25896 5.6555C7.91634 5.82839 7.61802 6.07944 7.38751 6.38887C7.15699 6.69831 7.00056 7.05768 6.93053 7.43871C6.8605 7.81974 6.87878 8.21203 6.98393 8.58469L7.69059 11.089C7.83982 11.6115 8.15231 12.0709 8.5812 12.3984C9.01009 12.7259 9.53229 12.9038 10.0695 12.9055H14.7218C14.3782 13.6548 13.8298 14.2888 13.1416 14.7326C12.4534 15.1764 11.654 15.4114 10.838 15.4099H8.53743C6.7879 15.4099 5.11002 14.7063 3.87292 13.4539C2.63581 12.2014 1.94081 10.5028 1.94081 8.73161C1.94081 6.96043 2.63581 5.26179 3.87292 4.00937C5.11002 2.75695 6.7879 2.05335 8.53743 2.05335Z" fill="#1E293B"/>
</svg>
