<svg width="36" height="27" viewBox="0 0 36 27" fill="none"
                                    xmlns="http://www.w3.org/2000/svg">
                                    <path d="M19.209 1.93164H23.1898L28.1658 17.2861" stroke="#D1E7AB"
                                        stroke-width="1.7" stroke-miterlimit="10" stroke-linecap="round"
                                        stroke-linejoin="round" />
                                    <path
                                        d="M28.1663 21.3805C30.3649 21.3805 32.1471 19.5473 32.1471 17.2859C32.1471 15.0246 30.3649 13.1914 28.1663 13.1914C25.9678 13.1914 24.1855 15.0246 24.1855 17.2859C24.1855 19.5473 25.9678 21.3805 28.1663 21.3805Z"
                                        stroke="#D1E7AB" stroke-width="1.7" stroke-miterlimit="10"
                                        stroke-linecap="round" stroke-linejoin="round" />
                                    <path
                                        d="M6.27181 21.3805C8.47034 21.3805 10.2526 19.5473 10.2526 17.2859C10.2526 15.0246 8.47034 13.1914 6.27181 13.1914C4.07328 13.1914 2.29102 15.0246 2.29102 17.2859C2.29102 19.5473 4.07328 21.3805 6.27181 21.3805Z"
                                        stroke="#D1E7AB" stroke-width="1.7" stroke-miterlimit="10"
                                        stroke-linecap="round" stroke-linejoin="round" />
                                    <path
                                        d="M6.26953 9.09668C10.6484 9.09668 14.2311 12.7818 14.2311 17.2857H20.2023C20.2023 12.7818 23.785 9.09668 28.1639 9.09668C28.9601 9.09668 29.8557 9.19904 30.5524 9.50613"
                                        stroke="#D1E7AB" stroke-width="1.7" stroke-miterlimit="10"
                                        stroke-linecap="round" stroke-linejoin="round" />
                                    <path
                                        d="M24.1847 6.02539H18.2135L17.8155 6.63957C16.2231 9.30102 13.2375 10.7341 10.252 10.1199"
                                        stroke="#D1E7AB" stroke-width="1.7" stroke-miterlimit="10"
                                        stroke-linecap="round" stroke-linejoin="round" />
                                </svg>