<svg width="34" height="34" viewBox="0 0 34 34" fill="none" xmlns="http://www.w3.org/2000/svg">
<path d="M22.2832 29.7588V27.0088C22.2832 25.5501 21.7037 24.1512 20.6723 23.1197C19.6408 22.0883 18.2419 21.5088 16.7832 21.5088H8.5332C7.07451 21.5088 5.67557 22.0883 4.64412 23.1197C3.61267 24.1512 3.0332 25.5501 3.0332 27.0088V29.7588" stroke="#1E293B" stroke-width="2" stroke-linecap="round" stroke-linejoin="round"/>
<path d="M12.6582 16.0088C15.6958 16.0088 18.1582 13.5464 18.1582 10.5088C18.1582 7.47122 15.6958 5.00879 12.6582 5.00879C9.62064 5.00879 7.1582 7.47122 7.1582 10.5088C7.1582 13.5464 9.62064 16.0088 12.6582 16.0088Z" stroke="#1E293B" stroke-width="2" stroke-linecap="round" stroke-linejoin="round"/>
<path d="M30.5332 29.7588V27.0088C30.5323 25.7902 30.1267 24.6064 29.3801 23.6432C28.6335 22.6801 27.5881 21.9922 26.4082 21.6876" stroke="#1E293B" stroke-width="2" stroke-linecap="round" stroke-linejoin="round"/>
<path d="M22.2832 5.18756C23.4663 5.49047 24.5149 6.17852 25.2637 7.14324C26.0125 8.10795 26.419 9.29445 26.419 10.5157C26.419 11.7369 26.0125 12.9234 25.2637 13.8881C24.5149 14.8528 23.4663 15.5409 22.2832 15.8438" stroke="#1E293B" stroke-width="2" stroke-linecap="round" stroke-linejoin="round"/>
</svg>
